<?xml version="1.0" encoding="UTF-8" standalone="no"?>
<!DOCTYPE svg PUBLIC "-//W3C//DTD SVG 1.1//EN"
 "http://www.w3.org/Graphics/SVG/1.1/DTD/svg11.dtd">
<!-- Generated by graphviz version 9.0.0 (20230911.1827)
 -->
<!-- Title: /github/workspace/src/stupid_library/print.cpp Pages: 1 -->
<svg width="309pt" height="149pt"
 viewBox="0.00 0.00 309.12 149.00" xmlns="http://www.w3.org/2000/svg" xmlns:xlink="http://www.w3.org/1999/xlink">
<g id="graph0" class="graph" transform="scale(1 1) rotate(0) translate(4 145)">
<title>/github/workspace/src/stupid_library/print.cpp</title>
<!-- Node1 -->
<g id="Node000001" class="node">
<title>Node1</title>
<g id="a_Node000001"><a xlink:title=" ">
<polygon fill="#999999" stroke="#666666" points="223.25,-141 107.5,-141 107.5,-110.5 223.25,-110.5 223.25,-141"/>
<text text-anchor="start" x="115.5" y="-127.5" font-family="Helvetica,sans-Serif" font-size="10.00">/github/workspace/src</text>
<text text-anchor="middle" x="165.38" y="-116.25" font-family="Helvetica,sans-Serif" font-size="10.00">/stupid_library/print.cpp</text>
</a>
</g>
</g>
<!-- Node2 -->
<g id="Node000002" class="node">
<title>Node2</title>
<g id="a_Node000002"><a xlink:href="print_8hpp.html" target="_top" xlink:title=" ">
<polygon fill="white" stroke="#666666" points="112.75,-74.5 0,-74.5 0,-55.25 112.75,-55.25 112.75,-74.5"/>
<text text-anchor="middle" x="56.38" y="-61" font-family="Helvetica,sans-Serif" font-size="10.00">stupid_library/print.hpp</text>
</a>
</g>
</g>
<!-- Node1&#45;&gt;Node2 -->
<g id="edge1_Node000001_Node000002" class="edge">
<title>Node1&#45;&gt;Node2</title>
<g id="a_edge1_Node000001_Node000002"><a xlink:title=" ">
<path fill="none" stroke="#63b8ff" d="M138.15,-110.05C121.23,-100.91 99.59,-89.22 82.82,-80.16"/>
<polygon fill="#63b8ff" stroke="#63b8ff" points="84.88,-77.3 74.42,-75.62 81.56,-83.46 84.88,-77.3"/>
</a>
</g>
</g>
<!-- Node4 -->
<g id="Node000004" class="node">
<title>Node4</title>
<g id="a_Node000004"><a xlink:title=" ">
<polygon fill="#e0e0e0" stroke="#999999" points="199.62,-74.5 131.12,-74.5 131.12,-55.25 199.62,-55.25 199.62,-74.5"/>
<text text-anchor="middle" x="165.38" y="-61" font-family="Helvetica,sans-Serif" font-size="10.00">fmt/format.h</text>
</a>
</g>
</g>
<!-- Node1&#45;&gt;Node4 -->
<g id="edge3_Node000001_Node000004" class="edge">
<title>Node1&#45;&gt;Node4</title>
<g id="a_edge3_Node000001_Node000004"><a xlink:title=" ">
<path fill="none" stroke="#63b8ff" d="M165.38,-110.2C165.38,-102.96 165.38,-94.09 165.38,-86.19"/>
<polygon fill="#63b8ff" stroke="#63b8ff" points="168.88,-86.46 165.38,-76.46 161.88,-86.46 168.88,-86.46"/>
</a>
</g>
</g>
<!-- Node5 -->
<g id="Node000005" class="node">
<title>Node5</title>
<g id="a_Node000005"><a xlink:title=" ">
<polygon fill="#e0e0e0" stroke="#999999" points="301.12,-74.5 217.62,-74.5 217.62,-55.25 301.12,-55.25 301.12,-74.5"/>
<text text-anchor="middle" x="259.38" y="-61" font-family="Helvetica,sans-Serif" font-size="10.00">spdlog/spdlog.h</text>
</a>
</g>
</g>
<!-- Node1&#45;&gt;Node5 -->
<g id="edge4_Node000001_Node000005" class="edge">
<title>Node1&#45;&gt;Node5</title>
<g id="a_edge4_Node000001_Node000005"><a xlink:title=" ">
<path fill="none" stroke="#63b8ff" d="M188.61,-110.2C202.79,-101.32 220.87,-89.99 235.21,-81.01"/>
<polygon fill="#63b8ff" stroke="#63b8ff" points="236.98,-84.03 243.6,-75.75 233.27,-78.1 236.98,-84.03"/>
</a>
</g>
</g>
<!-- Node3 -->
<g id="Node000003" class="node">
<title>Node3</title>
<g id="a_Node000003"><a xlink:title=" ">
<polygon fill="#e0e0e0" stroke="#999999" points="83.12,-19.25 29.62,-19.25 29.62,0 83.12,0 83.12,-19.25"/>
<text text-anchor="middle" x="56.38" y="-5.75" font-family="Helvetica,sans-Serif" font-size="10.00">iostream</text>
</a>
</g>
</g>
<!-- Node2&#45;&gt;Node3 -->
<g id="edge2_Node000002_Node000003" class="edge">
<title>Node2&#45;&gt;Node3</title>
<g id="a_edge2_Node000002_Node000003"><a xlink:title=" ">
<path fill="none" stroke="#63b8ff" d="M56.38,-55.08C56.38,-48.57 56.38,-39.42 56.38,-31.12"/>
<polygon fill="#63b8ff" stroke="#63b8ff" points="59.88,-31.12 56.38,-21.12 52.88,-31.12 59.88,-31.12"/>
</a>
</g>
</g>
</g>
</svg>
