<?xml version="1.0" encoding="UTF-8" standalone="no"?>
<!DOCTYPE svg PUBLIC "-//W3C//DTD SVG 1.1//EN"
 "http://www.w3.org/Graphics/SVG/1.1/DTD/svg11.dtd">
<!-- Generated by graphviz version 11.0.0 (20240428.1522)
 -->
<!-- Title: /github/workspace/src/stupid_library/stupid_library.cpp Pages: 1 -->
<svg width="298pt" height="172pt"
 viewBox="0.00 0.00 297.88 171.50" xmlns="http://www.w3.org/2000/svg" xmlns:xlink="http://www.w3.org/1999/xlink">
<g id="graph0" class="graph" transform="scale(1 1) rotate(0) translate(4 167.5)">
<title>/github/workspace/src/stupid_library/stupid_library.cpp</title>
<!-- Node1 -->
<g id="Node000001" class="node">
<title>Node1</title>
<g id="a_Node000001"><a xlink:title=" ">
<polygon fill="#999999" stroke="#666666" points="210.12,-163.5 98.12,-163.5 98.12,-121.75 210.12,-121.75 210.12,-163.5"/>
<text text-anchor="start" x="106.12" y="-150" font-family="Helvetica,sans-Serif" font-size="10.00">/github/workspace/src</text>
<text text-anchor="start" x="106.12" y="-138.75" font-family="Helvetica,sans-Serif" font-size="10.00">/stupid_library/stupid</text>
<text text-anchor="middle" x="154.12" y="-127.5" font-family="Helvetica,sans-Serif" font-size="10.00">_library.cpp</text>
</a>
</g>
</g>
<!-- Node2 -->
<g id="Node000002" class="node">
<title>Node2</title>
<g id="a_Node000002"><a xlink:href="stupid__library_8hpp.html" target="_top" xlink:title=" ">
<polygon fill="white" stroke="#666666" points="102.25,-85.75 0,-85.75 0,-55.25 102.25,-55.25 102.25,-85.75"/>
<text text-anchor="start" x="8" y="-72.25" font-family="Helvetica,sans-Serif" font-size="10.00">stupid_library/stupid</text>
<text text-anchor="middle" x="51.12" y="-61" font-family="Helvetica,sans-Serif" font-size="10.00">_library.hpp</text>
</a>
</g>
</g>
<!-- Node1&#45;&gt;Node2 -->
<g id="edge1_Node000001_Node000002" class="edge">
<title>Node1&#45;&gt;Node2</title>
<g id="a_edge1_Node000001_Node000002"><a xlink:title=" ">
<path fill="none" stroke="#63b8ff" d="M124.33,-121.34C111.04,-112.29 95.39,-101.64 81.98,-92.5"/>
<polygon fill="#63b8ff" stroke="#63b8ff" points="84.16,-89.76 73.92,-87.02 80.22,-95.54 84.16,-89.76"/>
</a>
</g>
</g>
<!-- Node4 -->
<g id="Node000004" class="node">
<title>Node4</title>
<g id="a_Node000004"><a xlink:title=" ">
<polygon fill="#e0e0e0" stroke="#999999" points="188.38,-80.12 119.88,-80.12 119.88,-60.88 188.38,-60.88 188.38,-80.12"/>
<text text-anchor="middle" x="154.12" y="-66.62" font-family="Helvetica,sans-Serif" font-size="10.00">fmt/format.h</text>
</a>
</g>
</g>
<!-- Node1&#45;&gt;Node4 -->
<g id="edge3_Node000001_Node000004" class="edge">
<title>Node1&#45;&gt;Node4</title>
<g id="a_edge3_Node000001_Node000004"><a xlink:title=" ">
<path fill="none" stroke="#63b8ff" d="M154.12,-121.34C154.12,-112 154.12,-100.94 154.12,-91.62"/>
<polygon fill="#63b8ff" stroke="#63b8ff" points="157.63,-91.82 154.13,-81.82 150.63,-91.82 157.63,-91.82"/>
</a>
</g>
</g>
<!-- Node5 -->
<g id="Node000005" class="node">
<title>Node5</title>
<g id="a_Node000005"><a xlink:title=" ">
<polygon fill="#e0e0e0" stroke="#999999" points="289.88,-80.12 206.38,-80.12 206.38,-60.88 289.88,-60.88 289.88,-80.12"/>
<text text-anchor="middle" x="248.12" y="-66.62" font-family="Helvetica,sans-Serif" font-size="10.00">spdlog/spdlog.h</text>
</a>
</g>
</g>
<!-- Node1&#45;&gt;Node5 -->
<g id="edge4_Node000001_Node000005" class="edge">
<title>Node1&#45;&gt;Node5</title>
<g id="a_edge4_Node000001_Node000005"><a xlink:title=" ">
<path fill="none" stroke="#63b8ff" d="M181.31,-121.34C195.89,-110.47 213.57,-97.28 227.08,-87.2"/>
<polygon fill="#63b8ff" stroke="#63b8ff" points="228.95,-90.17 234.87,-81.39 224.76,-84.56 228.95,-90.17"/>
</a>
</g>
</g>
<!-- Node3 -->
<g id="Node000003" class="node">
<title>Node3</title>
<g id="a_Node000003"><a xlink:title=" ">
<polygon fill="#e0e0e0" stroke="#999999" points="77.88,-19.25 24.38,-19.25 24.38,0 77.88,0 77.88,-19.25"/>
<text text-anchor="middle" x="51.12" y="-5.75" font-family="Helvetica,sans-Serif" font-size="10.00">iostream</text>
</a>
</g>
</g>
<!-- Node2&#45;&gt;Node3 -->
<g id="edge2_Node000002_Node000003" class="edge">
<title>Node2&#45;&gt;Node3</title>
<g id="a_edge2_Node000002_Node000003"><a xlink:title=" ">
<path fill="none" stroke="#63b8ff" d="M51.12,-54.95C51.12,-47.71 51.12,-38.84 51.12,-30.94"/>
<polygon fill="#63b8ff" stroke="#63b8ff" points="54.63,-31.21 51.13,-21.21 47.63,-31.21 54.63,-31.21"/>
</a>
</g>
</g>
</g>
</svg>
